<svg width="53" height="70" viewBox="0 0 42 60" fill="none" xmlns="http://www.w3.org/2000/svg">
<path d="M2.29102 0L5.0822 2.75023V51.0924L2.29102 53.9047V0Z" fill="white"/>
<path d="M5.64062 3.30029L8.43181 5.71376V48.1365L5.64062 50.6045V3.30029Z" fill="white"/>
<path d="M8.99023 6.05054L11.7814 8.18337V45.6732L8.99023 47.8542V6.05054Z" fill="white"/>
<path d="M22.946 19.2517L24.6207 20.9019L13.456 31.9028L11.7812 30.2527L22.946 19.2517Z" fill="white"/>
<path d="M25.1794 21.452L26.8541 23.1021L15.6894 34.1031L14.0146 32.4529L25.1794 21.452Z" fill="white"/>
<path d="M27.4118 23.6522L29.0865 25.3023L17.9218 36.3033L16.2471 34.6531L27.4118 23.6522Z" fill="white"/>
<path d="M41.9537 57.7891L37.7322 57.755L2.29003 23.129L2.29003 18.616L41.9537 57.7891Z" fill="white"/>
<path d="M37.1738 57.7599L32.708 57.7599L2.30386 27.5024L2.30386 23.6521L37.1738 57.7599Z" fill="white"/>
<path d="M32.1494 57.7551L27.9627 57.7551L2.29363 31.6278L2.29365 28.0525L32.1494 57.7551Z" fill="white"/>
</svg>
